<svg id="Layer_1" data-name="Layer 1" xmlns="http://www.w3.org/2000/svg" viewBox="0 0 64 64"><defs><style>.cls-1{fill:none;}</style></defs><rect class="cls-1" x="6.53" y="26" width="51.23" height="31.49"/><rect class="cls-1" x="43.23" y="2.75" width="6.58" height="12.65"/><rect x="14.2" y="1.26" width="6.66" height="12.81"/><rect x="43.22" y="1.26" width="6.66" height="12.81"/><rect x="13.02" y="29.01" width="8.86" height="5.07"/><rect x="42.12" y="29.01" width="8.86" height="5.07"/><rect x="27.57" y="29.01" width="8.86" height="5.07"/><rect x="13.02" y="37.8" width="8.86" height="5.07"/><rect x="42.12" y="37.8" width="8.86" height="5.07"/><rect x="27.57" y="37.8" width="8.86" height="5.07"/><rect x="13.02" y="46.59" width="8.86" height="5.07"/><rect x="42.12" y="46.59" width="8.86" height="5.07"/><rect x="27.57" y="46.59" width="8.86" height="5.07"/><path d="M58.46,4.62H51.91V16.09H41.2V4.62H22.88V16.09H12.17V4.62H0V62.74H64V4.62H58.46Zm-0.54,52H6.07V24.79H57.93V56.67Z"/></svg>