<svg id="Layer_1" data-name="Layer 1" xmlns="http://www.w3.org/2000/svg" viewBox="0 0 64 64"><path d="M32,20.33A4.33,4.33,0,1,0,27.67,16,4.41,4.41,0,0,0,32,20.33Z"/><path d="M38.67,22H25.33a2.15,2.15,0,0,0-2,2V37H27V52.33H37V37h3.67V24A2.15,2.15,0,0,0,38.67,22Z"/><path d="M54.67,9.33C48.67,3,41,0,32,0A30.44,30.44,0,0,0,9.33,9.33,31,31,0,0,0,0,32,30.44,30.44,0,0,0,9.33,54.67,31,31,0,0,0,32,64a31.48,31.48,0,0,0,23-9.67c6-6,9-13.33,9-22.33S61,15.33,54.67,9.33ZM50.67,50A25.77,25.77,0,0,1,32,58a25.66,25.66,0,0,1-18.67-7.67A25.46,25.46,0,0,1,5.67,32a25.76,25.76,0,0,1,8-18.67A24.91,24.91,0,0,1,32,5.67c7.33,0,13.33,2.67,18.67,7.67,5,5.33,7.67,11.33,7.67,18.67A23.65,23.65,0,0,1,50.67,50Z"/></svg>