<svg id="Layer_1" data-name="Layer 1" xmlns="http://www.w3.org/2000/svg" viewBox="0 0 64 64"><path d="M54.67,9.33C48.67,3,41,0,32,0A30.44,30.44,0,0,0,9.33,9.33,31,31,0,0,0,0,32,31,31,0,0,0,9.33,54.67,30.44,30.44,0,0,0,32,64c8.67,0,16.33-3.33,23-9.67A30.68,30.68,0,0,0,64,32C64,23.33,61,15.33,54.67,9.33Zm-4,41a25.77,25.77,0,0,1-18.67,8,26.8,26.8,0,0,1-18.67-7.67A26.8,26.8,0,0,1,5.67,32,24.86,24.86,0,0,1,7,23.33l16.33,7.33a33.64,33.64,0,0,1,5,2.33L32,34.67,35,36a2,2,0,0,1,1,2c0,2.33-2,3.33-4,3.33a9.08,9.08,0,0,1-7-3l-4.33,4.33a14.52,14.52,0,0,0,9.67,3.67v5H34v-5c4.33-.33,8-3,8.67-7l12,5.33A16.06,16.06,0,0,1,50.67,50.33ZM41,31.67a33.64,33.64,0,0,1-5-2.33L33.33,28,29,26.33c0-.33-0.33-0.67-0.33-1,0-2,2.33-2.33,4-2.33A7.57,7.57,0,0,1,38,25l4.33-4.33a17,17,0,0,0-8-3v-5H30.67v5c-4,0-7.33,2-8.33,5.67L10,17.67a23,23,0,0,1,3.67-4.33A24.91,24.91,0,0,1,32,5.67c7.33,0,13.33,2.67,18.67,7.67A25.66,25.66,0,0,1,58.33,32a49.73,49.73,0,0,1-.67,7Z"/></svg>