<svg id="Layer_1" data-name="Layer 1" xmlns="http://www.w3.org/2000/svg" viewBox="0 0 64 64"><rect x="20.67" y="34.67" width="23.33" height="5.67"/><path d="M54.67,9.33C48.67,3,41,0,32,0A30.44,30.44,0,0,0,9.33,9.33,31,31,0,0,0,0,32,31,31,0,0,0,9.33,54.67,30.44,30.44,0,0,0,32,64c8.67,0,16.33-3.33,23-9.67A30.68,30.68,0,0,0,64,32C64,23,61,15.33,54.67,9.33Zm-4,41a25.77,25.77,0,0,1-18.67,8,26.8,26.8,0,0,1-18.67-7.67A26.8,26.8,0,0,1,5.67,32a25.77,25.77,0,0,1,8-18.67A24.91,24.91,0,0,1,32,5.67c7.33,0,13.33,2.67,18.67,7.67A25.66,25.66,0,0,1,58.33,32,24.91,24.91,0,0,1,50.67,50.33Z"/><rect x="20.67" y="24.33" width="23.33" height="5.67"/></svg>