<svg id="Layer_1" data-name="Layer 1" xmlns="http://www.w3.org/2000/svg" viewBox="0 0 64 64"><path d="M32.31,0A23.14,23.14,0,0,0,17.85,41.22a8.71,8.71,0,0,1,3.07,5.28C24.26,46.82,28,47,32.31,47s8-.2,11.38-0.52a8.58,8.58,0,0,1,3.08-5.28,23.48,23.48,0,0,0,8.69-18.06A23.15,23.15,0,0,0,32.31,0Zm9.93,19.41a17.36,17.36,0,0,0-8.05-7.19L36.34,7.6a22.12,22.12,0,0,1,10.53,9.65Z"/><path d="M23,50.87v5.92a2.68,2.68,0,0,0,.55,2l4.93,4.37a3.39,3.39,0,0,0,2,.84h3.45a4.07,4.07,0,0,0,2.17-.82l5.18-4.37a2.8,2.8,0,0,0,.75-2V50.87c-5,.37-8.39.41-9.5,0.41S28,51.24,23,50.87Z"/></svg>