<svg id="Layer_1" data-name="Layer 1" xmlns="http://www.w3.org/2000/svg" viewBox="0 0 64 64"><g id="_Group_" data-name="&lt;Group&gt;"><path id="_Compound_Path_" data-name="&lt;Compound Path&gt;" d="M64,55.79A8.25,8.25,0,0,1,55.79,64H8.21A8.25,8.25,0,0,1,0,55.79V8.21A8.25,8.25,0,0,1,8.21,0H55.79A8.25,8.25,0,0,1,64,8.21V55.79ZM56.75,27.08H51.13A18.26,18.26,0,0,1,52,32.54C52,43.21,43,51.83,32,51.83S12.17,43.21,12.17,32.54A18.23,18.23,0,0,1,13,27.08H7.12v27a2.53,2.53,0,0,0,2.54,2.54H54.21a2.53,2.53,0,0,0,2.54-2.54v-27ZM32,19.42A12.66,12.66,0,0,0,19.21,31.88,12.66,12.66,0,0,0,32,44.33,12.67,12.67,0,0,0,44.92,31.88,12.67,12.67,0,0,0,32,19.42ZM56.75,10a2.88,2.88,0,0,0-2.88-2.88H46.62A2.88,2.88,0,0,0,43.75,10v6.87a2.88,2.88,0,0,0,2.87,2.88h7.25a2.88,2.88,0,0,0,2.88-2.88V10Z"/></g></svg>