<svg id="Layer_1" data-name="Layer 1" xmlns="http://www.w3.org/2000/svg" viewBox="0 0 64 64"><path d="M6.62,46.29H57.38a0.71,0.71,0,0,0,.71-0.71V9.31a0.71,0.71,0,0,0-.71-0.71H6.62a0.71,0.71,0,0,0-.71.71V45.58A0.71,0.71,0,0,0,6.62,46.29Zm5.09-6.51V14.4H52.29V40.49H11.71V39.78Z"/><path d="M63.3,49.33H0.7A0.7,0.7,0,0,0,0,50V54.7a0.7,0.7,0,0,0,.7.7H63.3a0.7,0.7,0,0,0,.7-0.7V50A0.7,0.7,0,0,0,63.3,49.33ZM36,53.1H28c-0.45,0-.5-0.32-0.5-0.74s0.05-.74.5-0.74h8c0.45,0,.51.32,0.51,0.74S36.45,53.1,36,53.1Z"/></svg>