<svg id="Layer_1" data-name="Layer 1" xmlns="http://www.w3.org/2000/svg" viewBox="0 0 64 64"><defs><style>.cls-1{fill:none;}</style></defs><polygon class="cls-1" points="51.98 14.02 11.95 14.02 31.97 31.9 51.98 14.02"/><polygon class="cls-1" points="47.78 33.59 57.94 45 57.94 16.73 31.97 39.94 5.99 16.73 5.99 45.26 16.21 33.78 20.69 37.77 9.81 49.98 54.35 49.98 43.3 37.57 47.78 33.59"/><path d="M63.94,51.73V8H0V56H63.94V51.86L64,51.8ZM52,14L32,31.9,12,14H52ZM9.81,50L20.69,37.77l-4.48-4L6,45.26V16.73L32,39.94l26-23.21V45L47.78,33.59l-4.48,4L54.36,50H9.81Z"/></svg>