<svg id="Layer_1" data-name="Layer 1" xmlns="http://www.w3.org/2000/svg" viewBox="0 0 64 64"><rect x="29.3" y="46.39" width="5.4" height="17.61"/><rect x="40.9" y="43.29" width="5.4" height="17.61" transform="translate(-20.2 28.78) rotate(-30)"/><rect x="49.39" y="34.8" width="5.4" height="17.61" transform="translate(-11.71 66.91) rotate(-60)"/><rect x="46.39" y="29.3" width="17.61" height="5.4"/><rect x="43.29" y="17.7" width="17.61" height="5.4" transform="translate(-3.22 28.78) rotate(-30)"/><rect x="34.8" y="9.21" width="17.61" height="5.4" transform="translate(11.49 43.71) rotate(-60)"/><rect x="29.3" width="5.4" height="17.61"/><rect x="17.7" y="3.11" width="5.4" height="17.61" transform="translate(-3.22 11.8) rotate(-30)"/><rect x="9.21" y="11.6" width="5.4" height="17.61" transform="translate(-11.71 20.52) rotate(-60)"/><rect y="29.3" width="17.61" height="5.4"/><rect x="3.11" y="40.9" width="17.61" height="5.4" transform="translate(-20.2 11.8) rotate(-30)"/><rect x="11.6" y="49.39" width="17.61" height="5.4" transform="translate(-34.91 43.72) rotate(-60)"/></svg>