<svg id="Layer_1" data-name="Layer 1" xmlns="http://www.w3.org/2000/svg" viewBox="0 0 64 64"><path d="M0,0V64H64V0H0ZM17,49H9V30h8V49Zm0-24H9V15h8V25ZM30,49H22V30h8V49Zm0-24H22V15h8V25ZM44.32,49.52c-6.58,0-11.46-4.3-11.46-10.78a4.43,4.43,0,0,1,0-.74H41v0.33a3.3,3.3,0,0,0,3.3,3.57,2.93,2.93,0,0,0,3.1-3.12c0-1.77-1.53-2.72-4.52-3.9-4.4-1.67-9.54-3.69-9.54-10.17,0-6.14,4.8-10.46,11-10.46s11,4.09,11,10.09a2.94,2.94,0,0,1,0,.66H47V24.93c0-2.13-1.1-3.43-2.91-3.43a2.68,2.68,0,0,0-2.79,2.8c0,1.78,1.5,2.66,4.85,3.86,4.53,1.63,9.63,3.69,9.63,10.53C55.78,45.11,50.8,49.52,44.32,49.52Z"/></svg>