<svg id="Layer_1" data-name="Layer 1" xmlns="http://www.w3.org/2000/svg" viewBox="0 0 64 64"><path id="_Compound_Path_" data-name="&lt;Compound Path&gt;" d="M57.42,19c0,0.57,0,1.14,0,1.71C57.46,38,44.26,58,20.14,58A37.06,37.06,0,0,1,0,52.1a27.21,27.21,0,0,0,3.17.16,26.27,26.27,0,0,0,16.28-5.6,13.14,13.14,0,0,1-12.26-9.1,16.46,16.46,0,0,0,2.48.2,13.87,13.87,0,0,0,3.45-.45A13.12,13.12,0,0,1,2.6,24.45V24.28a13.2,13.2,0,0,0,5.93,1.67A13.13,13.13,0,0,1,4.47,8.41a37.28,37.28,0,0,0,27,13.73,14.86,14.86,0,0,1-.32-3,13.13,13.13,0,0,1,22.7-9A25.81,25.81,0,0,0,62.21,7a13.08,13.08,0,0,1-5.77,7.23,26.28,26.28,0,0,0,7.55-2A28.21,28.21,0,0,1,57.42,19Z"/></svg>